<svg xmlns="http://www.w3.org/2000/svg" width="178.28" height="48" fill="#0046d1" viewBox="0 0 178.28 48">
  <g transform="translate(-253.465 -283.465)">
    <g transform="translate(253.465 283.465)">
      <path d="M277.465,283.465a24,24,0,1,0,24,24A24,24,0,0,0,277.465,283.465Zm12.106,37.176c-.933,1.939-2.691,2.156-4.569,2.039-2.456-.153-3.547-2.968-3.056-4.907s4.642-3.233,6.23-1.9C289.865,317.3,290.439,318.839,289.571,320.641Zm-1.478-14.852c-4.01,2.649-18.148,7.11-12.7,8.9,0,0,2.112.289,2.126,1.172.026,1.594-1.232,1.794-1.737,1.649-1.335-.382-2.649.247-6.422,1.6-5.168,1.855-8.178-4.126-3.392-6.38.128-.078,11.424-5.9,11.549-5.963,5.307-2.773,1.151-6.569-3.592-4.545-3.427,1.769-6.706.383-8.272-2.838-2.662-6.146,6.734-9.4,9.783-4.081,1.764,2.547,6.2,3.324,8.531,2.236C290,294.544,293.916,302.252,288.094,305.789Z" transform="translate(-253.465 -283.465)" fill="#0046d1"/>
    </g>
    <g transform="translate(314.145 287.247)">
      <g transform="translate(42.155 6.662)">
        <path d="M972.326,472.185c1.688.107,3.267-.089,4.106-1.832.781-1.621.263-3,1.254-4.282-1.426-1.2-5.157-.037-5.6,1.706S970.119,472.049,972.326,472.185Z" transform="translate(-953.067 -445.186)" fill="#0046d1" fill-rule="evenodd"/>
        <path d="M885.1,366.018c-.013-.793-1.911-1.055-1.911-1.055-4.895-1.608,7.808-5.619,11.412-8,5.231-3.178,1.713-10.1-3.708-7.41-2.1.978-6.08.281-7.665-2.008-2.74-4.777-11.182-1.856-8.791,3.666a5.2,5.2,0,0,0,7.432,2.551c4.261-1.819,8,1.592,3.228,4.083-.112.06-10.262,5.288-10.377,5.358-4.3,2.026-1.6,7.4,3.047,5.732,3.389-1.216,4.569-1.779,5.77-1.439C884,367.63,885.126,367.449,885.1,366.018Z" transform="translate(-872.566 -345.142)" fill="#0046d1" fill-rule="evenodd"/>
      </g>
      <path d="M623.982,375.948s-.448.04-.344-.451,5.05-23.741,5.05-23.741q2.859-2.56,11.437-2.56l1.4.032s.745,0,.6.673c-.109.519-.766,3.706-.912,4.348s-.93.566-.93.566h-1.352a8.99,8.99,0,0,0-4.227.869s-4.029,18.988-4.172,19.651a.749.749,0,0,1-.79.613m0,0" transform="translate(-623.622 -341.848)" fill="#0046d1"/>
      <path d="M741.663,373.575a38.6,38.6,0,0,1-9.857,1.251q-9.781,0-9.781-6.905a13.009,13.009,0,0,1,.3-2.631l1.622-7.618q2.088-9.78,12.853-9.781,9.018,0,9.019,6.856a13.972,13.972,0,0,1-.344,2.924l-1.229,5.848H729.5l-.393,1.769a5.422,5.422,0,0,0-.123,1.107q0,2.871,4.005,2.875c.639.033,1.278.048,1.917.048a36.35,36.35,0,0,0,7.662-.789s.67-.264.492.57c-.138.648-.71,3.352-.83,3.889A.7.7,0,0,1,741.663,373.575ZM730.405,359.2h7.962l.32-1.5a7.1,7.1,0,0,0,.171-1.45q0-2.8-3.169-2.8-4.08.125-4.965,4.251Z" transform="translate(-705.362 -340.764)" fill="#0046d1"/>
      <path d="M1044.328,339.646l-9.517.217q-9.02,0-9.019-6.858a14.014,14.014,0,0,1,.344-2.924l1.548-7.373q2.089-9.781,10.4-9.781a10.4,10.4,0,0,1,6.07,1.72s1.911-8.959,1.757-8.217c-.088.413.012-.63.77-.63.6,0,4.87,0,5.546,0s.479.579.479.579-6.57,30.869-6.845,32.142A1.388,1.388,0,0,1,1044.328,339.646Zm-1.161-20.328a11.116,11.116,0,0,0-4.3-.836q-3.49,0-4.35,3.981l-1.671,7.864a6.4,6.4,0,0,0-.172,1.4q0,2.581,2.826,2.581h4.473Z" transform="translate(-957.691 -305.801)" fill="#0046d1"/>
      <path d="M1162.526,383.911c.134-.642.716-3.445.822-3.912a.468.468,0,0,1,.668-.381,16.871,16.871,0,0,0,4.708.585q1.375,0,2.925-.147a4.483,4.483,0,0,0,4.816-3.981l.344-1.522a12.185,12.185,0,0,1-5.874,1.5q-.441,0-.884-.024-6.635-.2-6.635-6.39a16.575,16.575,0,0,1,.393-3.391l3.447-16.137a.864.864,0,0,1,.964-.77h5.21c.843,0,.626.7.626.7l-3.464,16.211a7.953,7.953,0,0,0-.172,1.549q0,2.678,2.777,2.678a13.878,13.878,0,0,0,4.644-.836l4.177-19.6a.828.828,0,0,1,.856-.7c.633,0,5.109,0,5.551,0a.39.39,0,0,1,.42.493l-5.6,26.244q-2.016,9.535-12.779,9.537-.762.047-1.474.048a16.7,16.7,0,0,1-6.091-.972A.6.6,0,0,1,1162.526,383.911Z" transform="translate(-1071.253 -341.965)" fill="#0046d1"/>
    </g>
    <path d="M659.768,507.182" transform="translate(-653.647 -473.081)" fill="#0046d1"/>
    <path d="M664.433,503.564" transform="translate(-657.522 -470.076)" fill="#0046d1"/>
    <path d="M659.768,507.182" transform="translate(-653.647 -473.081)" fill="#0046d1"/>
    <line y1="0.613" x2="0.79" transform="translate(6.121 33.488)" fill="#0046d1" stroke="#0046d1" stroke-width="1"/>
  </g>
</svg>
