<svg xmlns="http://www.w3.org/2000/svg" width="157.222" height="58.428" viewBox="0 0 157.222 58.428">
  <g id="Group_1" data-name="Group 1" transform="translate(-644.466 -387.06)">
    <path id="Path_2" data-name="Path 2" d="M972.719,474.41c2.256.143,4.367-.119,5.489-2.449,1.044-2.167.352-4.01,1.676-5.724-1.906-1.6-6.894-.049-7.486,2.281S969.768,474.228,972.719,474.41Z" transform="translate(-246.154 -42.35)" fill="#0046d1" fill-rule="evenodd"/>
    <path id="Path_3" data-name="Path 3" d="M889.323,373.05c-.017-1.06-2.555-1.41-2.555-1.41-6.544-2.15,10.438-7.512,15.256-10.694,6.993-4.248,2.29-13.5-4.957-9.906-2.807,1.307-8.128.376-10.247-2.684-3.663-6.386-14.948-2.481-11.752,4.9a6.951,6.951,0,0,0,9.935,3.41c5.7-2.432,10.694,2.128,4.315,5.458-.15.08-13.719,7.069-13.872,7.163-5.748,2.708-2.139,9.892,4.073,7.663,4.531-1.626,6.108-2.378,7.714-1.924C887.853,375.2,889.358,374.963,889.323,373.05Z" transform="translate(-171.749 50.824)" fill="#0046d1" fill-rule="evenodd"/>
    <path id="Path_4" data-name="Path 4" d="M624.1,384.958s-.6.053-.46-.6,6.751-31.737,6.751-31.737q3.822-3.422,15.289-3.422l1.872.043s1,0,.8.9c-.146.694-1.024,4.954-1.219,5.812s-1.243.757-1.243.757h-1.807a12.017,12.017,0,0,0-5.651,1.162s-5.386,25.383-5.577,26.27a1,1,0,0,1-1.056.82m0,0" transform="translate(20.844 47.688)" fill="#0046d1"/>
    <path id="Path_5" data-name="Path 5" d="M748.277,382.226A51.6,51.6,0,0,1,735.1,383.9q-13.075,0-13.075-9.231a17.4,17.4,0,0,1,.4-3.517l2.168-10.184q2.791-13.074,17.182-13.075,12.055,0,12.057,9.165a18.677,18.677,0,0,1-.46,3.909l-1.643,7.818H732.018l-.525,2.365a7.256,7.256,0,0,0-.164,1.48q0,3.838,5.354,3.843,1.281.066,2.563.064a48.6,48.6,0,0,0,10.243-1.055s.9-.353.658.762c-.185.866-.949,4.481-1.11,5.2A.936.936,0,0,1,748.277,382.226Zm-15.05-19.217h10.644L744.3,361a9.49,9.49,0,0,0,.229-1.938q0-3.743-4.236-3.743-5.454.167-6.637,5.683Z" transform="translate(-55.284 48.698)" fill="#0046d1"/>
    <path id="Path_6" data-name="Path 6" d="M1050.573,351.046l-12.722.29q-12.058,0-12.057-9.168a18.723,18.723,0,0,1,.46-3.909l2.069-9.856q2.793-13.075,13.9-13.075a13.9,13.9,0,0,1,8.114,2.3s2.555-11.977,2.349-10.985c-.118.552.016-.842,1.029-.842h7.414c.9,0,.64.774.64.774s-8.783,41.266-9.151,42.968A1.855,1.855,0,0,1,1050.573,351.046Zm-1.552-27.175a14.861,14.861,0,0,0-5.748-1.118q-4.666,0-5.815,5.322l-2.234,10.513a8.554,8.554,0,0,0-.23,1.872q0,3.45,3.778,3.45h5.979Z" transform="translate(-290.287 81.26)" fill="#0046d1"/>
    <path id="Path_7" data-name="Path 7" d="M1162.543,395.557c.179-.858.957-4.605,1.1-5.23a.626.626,0,0,1,.893-.509,22.552,22.552,0,0,0,6.294.782q1.838,0,3.91-.2a5.993,5.993,0,0,0,6.438-5.322l.46-2.035a16.288,16.288,0,0,1-7.852,2.005q-.59,0-1.182-.032-8.87-.267-8.87-8.542a22.159,22.159,0,0,1,.525-4.533l4.608-21.572a1.155,1.155,0,0,1,1.289-1.029h6.965c1.127,0,.837.936.837.936l-4.631,21.671a10.62,10.62,0,0,0-.23,2.071q0,3.58,3.713,3.58a18.552,18.552,0,0,0,6.208-1.118l5.584-26.2a1.107,1.107,0,0,1,1.144-.936h7.421a.521.521,0,0,1,.562.659l-7.486,35.083q-2.7,12.746-17.083,12.749-1.018.063-1.97.064a22.323,22.323,0,0,1-8.142-1.3.8.8,0,0,1-.5-1.045Z" transform="translate(-396.057 47.578)" fill="#0046d1"/>
  </g>
</svg>
