<svg xmlns="http://www.w3.org/2000/svg" width="359.989" height="362.062" viewBox="0 0 359.989 362.062">
  <g id="logo" transform="translate(11.535 -33.093)">
    <g id="Group_1" data-name="Group 1" transform="translate(-11.535 34.714)">
      <path id="Path_1" data-name="Path 1" d="M433.46,283.465c-99.408,0-179.995,80.688-179.995,180.22s80.586,180.22,179.995,180.22,179.995-80.687,179.995-180.22S532.868,283.465,433.46,283.465Zm90.792,279.161c-7,14.56-20.182,16.19-34.266,15.311-18.419-1.149-26.6-22.287-22.919-36.848s34.814-24.277,46.724-14.267c12.667,10.716,16.972,22.272,10.462,35.8ZM513.167,451.1c-30.074,19.892-136.106,53.39-95.247,66.832,0,0,15.839,2.17,15.945,8.8.195,11.97-9.24,13.472-13.027,12.383-10.012-2.868-19.867,1.855-48.164,12.015-38.759,13.93-61.333-30.983-25.439-47.908.96-.586,85.678-44.3,86.615-44.777,39.8-20.823,8.632-49.328-26.939-34.129-25.7,13.284-50.293,2.876-62.038-21.311-19.964-46.152,50.5-70.586,73.37-30.645,13.229,19.126,46.5,24.96,63.98,16.791,45.246-22.49,74.615,35.391,30.952,61.951Z" transform="translate(-253.465 -283.465)" fill="#0046d1"/>
    </g>
    <path id="Path_8" data-name="Path 8" d="M659.768,507.182" transform="translate(-653.647 -473.081)" fill="#0046d1"/>
    <path id="Path_9" data-name="Path 9" d="M664.433,503.564" transform="translate(-657.522 -470.076)" fill="#0046d1"/>
    <path id="Path_10" data-name="Path 10" d="M659.768,507.182" transform="translate(-653.647 -473.081)" fill="#0046d1"/>
    <line id="Line_1" data-name="Line 1" y1="0.613" x2="0.79" transform="translate(6.121 33.488)" fill="#0046d1" stroke="#0046d1" stroke-width="1"/>
  </g>
</svg>
